<?xml version="1.0" encoding="utf-8"?>
<!-- Generator: Adobe Illustrator 22.0.1, SVG Export Plug-In . SVG Version: 6.00 Build 0)  -->
<svg version="1.1" xmlns="http://www.w3.org/2000/svg" xmlns:xlink="http://www.w3.org/1999/xlink" x="0px" y="0px"
	 viewBox="0 0 847.4 449.7" style="enable-background:new 0 0 847.4 449.7;" xml:space="preserve">
<style type="text/css">
	.st0{fill:#8ACED7;}
	.st1{fill:#0096AA;}
</style>
<g id="Logo">
	<g>
		<path class="st0" d="M686.6,123.5c0-17.7-14.3-32-32-32c-17.7,0-32,14.3-32,32h0l0,0v26.9c0,4.8,5,5,5,5h26.9l0,0
			C672.3,155.5,686.6,141.2,686.6,123.5z"/>
		<path class="st1" d="M548.1,91.5c-35.3,0-63.9,28.6-63.9,63.9s28.6,63.9,63.9,63.9V164c1-8,10-8.5,10-8.5h54
			C612,120.2,583.4,91.5,548.1,91.5z"/>
		<g>
			<g>
				<path class="st1" d="M152.1,219c13.9,0,25.5,7.6,31.2,17.5l18.1-9.2c-9-14.4-24-27.1-49.3-27.1c-34.7,0-62.3,25.3-62.3,62.3
					s27.6,62.3,62.3,62.3c25.3,0,40.1-12.6,49.3-27.1l-18.1-9.2c-5.8,10.1-17.3,17.5-31.2,17.5c-22.9,0-40.6-18.2-40.6-43.5
					C111.4,237.2,129.1,219,152.1,219z"/>
				<path class="st1" d="M253.5,233.2c-27.6,0-44.8,20.8-44.8,45.7c0,25.1,17.2,45.9,44.8,45.9c28,0,45-20.8,45-45.9
					C298.5,254,281.5,233.2,253.5,233.2z M253.5,308c-16.1,0-25.1-13.5-25.1-29.1c0-15.3,9-28.9,25.1-28.9
					c16.3,0,25.3,13.5,25.3,28.9C278.8,294.4,269.8,308,253.5,308z"/>
				<path class="st1" d="M411.2,233.2c-13,0-24.6,8.1-29.6,16.1c-2.9-9.6-10.8-16.1-23.8-16.1c-13.2,0-24.7,8.7-28.3,14.1v-11.9h-19
					v87.2h19v-60.8c4-5.8,11.7-11.7,20-11.7c10.3,0,14.4,6.3,14.4,15.7v56.9h19v-61c3.8-5.6,11.7-11.6,20.2-11.6
					c10.1,0,14.3,6.3,14.3,15.7v56.9h19v-63C436.3,241.9,427.2,233.2,411.2,233.2z"/>
				<path class="st1" d="M552.5,233.2c-13,0-24.6,8.1-29.6,16.1c-2.9-9.6-10.8-16.1-23.8-16.1c-13.2,0-24.7,8.7-28.3,14.1v-11.9h-19
					v87.2h19v-60.8c4-5.8,11.7-11.7,20-11.7c10.3,0,14.4,6.3,14.4,15.7v56.9h19v-61c3.8-5.6,11.7-11.6,20.2-11.6
					c10.1,0,14.3,6.3,14.3,15.7v56.9h19v-63C577.6,241.9,568.6,233.2,552.5,233.2z"/>
				<rect x="593.2" y="235.4" class="st1" width="19" height="87.2"/>
				<path class="st1" d="M737.3,235.4l-25.5,65.4l-25.5-65.4h-13h-7.2h-10.5v-4.9c0-9.8,4.7-14.6,12.1-14.6c2.7,0,5.4,0.5,7.6,1.8
					l4.2-13.9c-3.8-2.2-9.2-3.4-15.2-3.4c-16.1,0-27.6,10.7-27.6,30.2v4.9h-14.4V252h14.4v70.6h19V252h17.2l29,71.7l-4.3,9.9
					c-2.5,5.8-6.5,7.6-12.5,7.6c-2.2,0-5.2-0.5-7.2-1.4l-2.9,17c2.7,0.7,7.9,1.3,10.7,1.3c13.5-0.2,24-4.9,30-19.7l42.1-102.9H737.3
					z"/>
			</g>
		</g>
		<path class="st0" d="M612,209.3v-53.9l-63.9,63.9H602C602,219.4,612,218.8,612,209.3z"/>
	</g>
</g>
<g id="Guides">
</g>
</svg>
