<svg width="195" height="50" viewBox="0 0 198 50" xmlns="http://www.w3.org/2000/svg">
  <path d="M29.703 21.65c.073.198.11.396.11.587.003.425-.195.816-.534 1.076-.28.213-1.01.673-2.02.825-.44.066-.81.14-1.08.21-.12.028-.22.057-.3.083.05.08.08.17.08.26 0 .25-.21.45-.46.45s-.46-.2-.46-.45v-.02c.01-.25.09-.44.29-.6.08-.05.15-.08.25-.12.1-.03.23-.07.38-.11.3-.07.71-.16 1.19-.23.87-.13 1.55-.55 1.75-.71.21-.17.31-.37.32-.63 0-.12-.03-.25-.08-.39-.05-.12-.16-.21-.35-.29-.18-.06-.42-.09-.6-.09-.05 0-.11 0-.15.01-.39.03-.87.29-1.25.53 0 0-2.37 2.38-2.6 2.68-.23.31-.84 1.08-1.98 1.17.08.04.14.12.14.21 0 .13-.1.23-.23.23H22l.32.75h1.14c.12 0 .227.1.227.22s-.1.23-.23.23h-4.63c-.125 0-.226-.1-.226-.23 0-.12.1-.22.23-.22h1.09l.35-.74h-.13c-.12 0-.23-.1-.23-.22 0-.09.06-.16.13-.2l-.09-.01s-1.44-.45-2.3-1.6c-.27-.35-1.15-1.55-1.87-1.71l-2.64-.35c-.15-.01-.26-.15-.25-.3.02-.15.15-.26.31-.25l.89.09c-.08-.04-.13-.13-.12-.23.01-.1.1-.18.2-.19-.26-.05-.51-.48-.54-.74-.03-.27.06-.62.06-.62s.04.23.25.46c.2.24.46.23.46.23s-.05-.06-.06-.34c-.05-.39.47-.89.49-.76.1.7.39.96.39.96s.09-.03.24-.28.05-.6.05-.6.45.31.45.72c0 .4-.04.42-.05.48-.02.09.32-.13.37-.4.02-.12.13.48.01.67-.18.27-.36.45-.48.46h-.01c.06.05.1.12.09.2-.01.12-.11.2-.22.2.1.01.19.03.27.04.38.06 1.13.11 1.8.14h.52c-.09-.04-.15-.12-.15-.21 0-.13.1-.23.23-.23h1.61l.35-.5c-.06-.04-.1-.11-.1-.18 0-.13.1-.23.23-.23h.51c-.12-.07-.19-.18-.19-.33 0-.21.17-.38.39-.38s.39.17.39.39c0 .15-.08.26-.19.33h.56c.12 0 .22.1.22.23 0 .08-.05.15-.12.19l.27.49H24c.13 0 .23.1.23.23 0 .1-.06.18-.15.21.58 0 1-.01 1.11-.02.406-.03.77-.17 1.05-.31.1-.07.217-.15.346-.23.41-.25.93-.53 1.464-.59.06-.01.122-.01.2-.01.23 0 .52.03.79.13s.55.29.672.62zm11.343 5.778c-.2.075-.37.162-.513.25-.176.113-.31.224-.396.305-.043.04-.074.073-.093.094-.01.01-.017.02-.02.024 0 .01-.002.01-.003.01l-.28.36-.28-.36c-.03-.04-.73-.87-2.09-.86-.71 0-1.24.23-1.59.45-.17.11-.31.22-.39.31l-.09.1-.02.03v.01l-.28.35-.28-.36c-.03-.04-.73-.87-2.08-.86-.71 0-1.23.22-1.57.44-.17.11-.3.22-.38.31-.04.04-.07.07-.09.1l-.02.02-.28.37-.29-.37c-.03-.03-.73-.87-2.08-.86-.76 0-1.23.1-1.49.18-.13.04-.21.08-.26.11l-.01.01c-.06.11-.3.57-.3 1.76 0 .72.23 1.24.45 1.59.11.18.22.31.3.39.04.05.07.08.09.09l.02.02.01.01.37.29-.37.29c-.02.02-.87.69-.87 2.07 0 .72.23 1.24.45 1.59.11.17.22.3.3.39.04.04.08.07.1.09l.03.02v.01l.36.28-.36.29c-.04.04-.87.76-.87 2.11 0 .72.22 1.24.44 1.59.11.18.22.31.3.39.04.05.08.07.1.09l.03.02.36.29-.36.29c-.02.02-.87.73-.87 2.11 0 .71.23 1.23.45 1.58.11.18.22.31.3.39.04.04.08.07.1.09l.02.02.01.01.36.28-.36.29c-.03.03-.54.48-.76 1.33-2.39 1.09-4.31 1.54-4.78 1.54-.43 0-2.09-.38-4.23-1.3-.18-1-.79-1.54-.83-1.57l-.36-.28.36-.28h.01l.02-.02.09-.09c.09-.08.2-.21.31-.39.22-.35.45-.87.45-1.58.01-1.37-.85-2.09-.87-2.11l-.35-.28.36-.28h.01l.03-.02.09-.09c.09-.08.2-.21.31-.39.22-.35.45-.87.45-1.58.01-1.356-.83-2.07-.87-2.11l-.35-.285.36-.28h.01l.02-.02c.02-.015.06-.05.1-.09.08-.08.19-.21.3-.385.22-.35.45-.876.45-1.59 0-1.37-.85-2.05-.87-2.06l-.37-.29.37-.29s0-.006.005-.01l.02-.02c.02-.01.05-.04.09-.09.08-.08.19-.21.3-.38.22-.35.45-.87.45-1.59 0-1.18-.233-1.65-.3-1.756l-.013-.01c-.05-.028-.13-.06-.26-.11-.26-.08-.73-.18-1.49-.18-1.36 0-2.06.83-2.09.87l-.29.37-.28-.37c0-.01-.01-.02-.02-.03l-.09-.09c-.08-.08-.21-.19-.38-.3-.343-.22-.86-.45-1.57-.45-1.36 0-2.05.83-2.09.87l-.28.36-.29-.36-.003-.007-.02-.03c-.02-.02-.05-.05-.1-.09-.09-.08-.22-.19-.4-.3-.36-.22-.884-.44-1.6-.44-1.354-.01-2.05.82-2.083.86l-.28.36-.29-.36v-.01l-.02-.02-.09-.09c-.09-.08-.22-.19-.4-.3-.25-.15-.58-.304-1-.384v-8.6c.42-.08.75-.23 1-.385.18-.11.31-.22.4-.3l.09-.09.01-.03.285-.36.28.36c.03.04.73.87 2.083.87.71 0 1.24-.23 1.59-.45.172-.12.31-.23.39-.31.05-.04.08-.08.1-.1.01-.01.01-.02.02-.02V18l.28-.36.28.36c.04.04.73.87 2.09.87.712 0 1.23-.224 1.57-.45.17-.11.3-.22.38-.3l.09-.093.02-.024.28-.38.29.37c.04.04.73.87 2.09.87.76 0 1.23-.1 1.493-.18.14-.05.22-.09.26-.11l.01-.01c.06-.11.3-.57.3-1.76 0-.71-.23-1.24-.45-1.59-.11-.17-.22-.3-.3-.38-.04-.044-.08-.08-.1-.094-.01-.01-.02-.01-.02-.02l-.006-.01-.37-.29.37-.28c.01-.02.87-.69.86-2.07 0-.71-.227-1.23-.45-1.58-.11-.18-.22-.31-.3-.39-.04-.04-.077-.07-.1-.09l-.03-.02v-.01l-.36-.28.36-.29c.05-.04.88-.76.87-2.11 0-.72-.22-1.24-.44-1.59-.11-.17-.22-.3-.3-.39-.04-.05-.07-.08-.1-.1l-.02-.02h-.02l-.36-.28.36-.28c.02-.01.88-.73.87-2.11 0-.71-.22-1.23-.44-1.58-.07-.11-.13-.2-.2-.27H26.5c-.06.07-.13.16-.2.27-.22.35-.443.87-.443 1.58-.004 1.38.85 2.09.87 2.11l.356.29-.36.28h-.02c-.01 0-.02.01-.03.02l-.094.09c-.08.08-.19.21-.3.39-.23.35-.45.87-.45 1.58-.01 1.36.83 2.07.87 2.11l.35.29-.36.28-.01.01s-.02.01-.02.02l-.1.09c-.08.08-.19.21-.3.39-.23.35-.45.87-.45 1.58 0 1.38.85 2.05.86 2.07l.37.28-.37.29h-.01l-.02.02-.1.09c-.08.09-.19.22-.3.39-.22.35-.45.87-.45 1.59 0 1.18.23 1.65.3 1.75l.01.01c.04.03.12.07.25.11.26.09.73.18 1.49.18 1.35.01 2.05-.82 2.08-.86l.29-.37.28.38V18l.02.027.09.09c.08.08.21.19.38.3.34.22.86.44 1.57.44 1.36 0 2.05-.83 2.09-.87l.28-.36.29.355V18l.02.02.09.09c.09.08.22.19.39.3.35.22.88.45 1.59.45 1.36 0 2.06-.83 2.09-.87l.28-.36.29.36.02.027.09.09c.08.08.22.19.39.31.14.09.31.17.51.25v8.85zm-3.76 3.518c-.07.206-.197.292-.404.43-.032.02-.065.044-.097.065-.253.18-.62.23-.625.23-.017.01-.03.02-.03.04.003.02.017.03.034.03h.266c.142 0 .363-.04.475-.06l-.046.09c-.03.04-.1.07-.22.14-.09.05-.2.1-.34.19-.3.17-.38.17-.39.17h-.01c-.02 0-.04 0-.04.02-.01.01-.01.03.01.04l.01.01c.03.02.12.04.18.04s.34-.06.47-.08l-.04.11c-.02.08-.13.24-.23.32-.09.07-.48.15-.63.18-.02 0-.03.02-.03.04s.01.03.03.04c0 0 .27.04.42.11.02.01.03.03.04.05.02.07-.03.18-.06.22-.04.03-.27.19-.4.21-.15.03-.28.05-.28.05-.01.01-.03.02-.03.04 0 .01.01.03.03.03 0 0 .36.11.46.16 0 .01.02.03.01.08-.02.06-.06.12-.1.17-.02.04-.05.07-.07.1-.02.04-.03.04-.05.04-.03 0-.09-.03-.14-.07-.14-.08-.34-.1-.35-.1 0 0-.02.01-.02.02-.01.01-.01.02-.01.03 0 .01 0 .09.07.18l.11.11c.06.07.15.14.16.19.02.05-.03.2-.16.38-.12.16-.17.18-.21.18-.01-.01-.01-.05-.01-.09 0-.06-.02-.15-.05-.24-.07-.2-.22-.36-.23-.36-.01-.02-.03-.02-.04-.01-.01.01-.02.03-.02.04.12.39.26.83.25.89-.01.08-.16.18-.21.18-.01 0-.01-.04-.02-.06 0-.04-.01-.08-.03-.12-.04-.09-.19-.16-.21-.16-.01-.01-.03-.01-.03 0-.02 0-.02.01-.02.03 0 0-.02.2.04.32.03.06.05.11.04.14 0 .02-.02.03-.06.05-.11.05-.23.03-.31-.04-.06-.04-.06-.04-.03-.15l.01-.03c.04-.14 0-.21-.04-.28l-.01-.01c-.02-.03-.04-.04-.06-.04-.05 0-.09.07-.1.09v.03c.02.11.06.4.03.48-.02.06-.08.07-.18.07-.03 0-.06 0-.08.01-.06.01-.13-.02-.17-.03 0-.13.01-.73 0-.9-.01-.17.03-.25.07-.27.07-.04.44-.29.69-.74l.25-.45c.29-.54.78-1.43 1.07-1.83.08.09.21.13.32.09.12-.04.2-.16.19-.29l-.01-.16c.41-.21 1.04-.57 1.17-.66.03-.02.04-.02.04-.02.03.04-.06.33-.094.43zM35.873 39.4c-.034.037-.084.06-.138.06-.015 0-.028-.002-.036-.004l-.98-.223c-.08-.02-.14-.085-.14-.165-.01-.078.04-.15.11-.18l.2-.077-1.28-1.14c-.06-.05-.08-.12-.06-.19.02-.07.07-.12.15-.14l.71-.15-.86-.85v-.03l.01-.33v-.08l.07.03c.03.01.06.02.08.05l1.21 1.21c.05.05.07.12.05.19-.02.07-.08.12-.15.13l-.69.15.98.88.06-.22c.02-.08.09-.13.17-.13.07 0 .14.05.17.12l.36.95c.02.06.01.13-.03.18zm-2.253.97c-.037-.067-.097-.15-.19-.235-.146-.134-.306-.15-.367-.15-.023 0-.036.005-.038.005-.01 0-.022.01-.025.02-.005.01-.002.025.003.034.002 0 .054.072.072.24.034.265-.173.566-.248.612-.146-.523-.394-.7-.404-.706-.006-.006-.013-.006-.02-.006-.005 0-.01 0-.014.003-.02.007-.08.048-.18.257-.07.146-.04.312-.01.412-.11-.074-.3-.234-.32-.438-.03-.26-.02-.31-.01-.344v-.022c0-.015 0-.03-.01-.04-.01-.01-.02-.014-.03-.014-.07 0-.25.172-.27.362-.03-.024-.07-.072-.1-.144-.03-.066-.07-.194-.01-.316.08-.19.25-.334.35-.385h1.4c.17.07.35.332.39.506.02.12.02.25.02.35zm-2.266-2.7l-1.282 1.14.2.078c.076.03.123.102.116.18-.006.08-.062.146-.14.164l-.976.224c-.01.002-.024.004-.04.004-.052 0-.102-.023-.136-.06-.044-.053-.056-.12-.033-.183l.36-.945c.03-.07.097-.116.167-.116.09.006.157.058.177.137l.057.223.984-.88-.693-.147c-.068-.02-.125-.07-.145-.14-.022-.07-.002-.15.048-.2l1.215-1.21c.02-.02.046-.04.08-.05l.077-.03.002.08c.003.11.01.22.013.33v.03l-.857.85.716.15c.07.01.13.07.147.14.02.07 0 .15-.05.2zm.404.997h1.462c.172 0 .313.14.313.312 0 .17-.14.31-.313.31h-1.462c-.173 0-.313-.14-.313-.32s.14-.32.313-.32zm-.298-7.185c0-.172.14-.313.312-.313h1.462c.172 0 .314.14.314.31 0 .17-.142.31-.314.31h-1.462c-.172 0-.312-.14-.312-.32zm.368.51h1.308c.053.436.206 1.814.206 3.16 0 1.504-.196 3.082-.218 3.258l-.01.072h-1.266l-.007-.068c0-.015-.22-1.66-.22-3.262 0-1.372.17-2.776.21-3.16zm3.087-1.025c-.084 0-.152-.05-.177-.13-.02-.075.008-.154.067-.197l.815-.595c.05-.038.126-.045.186-.016.046.02.08.06.094.11.004.01.005.03.005.04l.043 1c.003.08-.046.15-.12.17-.073.02-.16 0-.205-.07l-.127-.17-.738 1.46c-.033.06-.1.1-.173.1-.074 0-.14-.04-.175-.11l-.334-.66-.686 1.21-.015-.2-.03-.34-.014-.15.59-1.03c.04-.06.1-.1.17-.1.08 0 .14.04.17.11l.33.63.56-1.11-.23.01zm-2.927-.535s-.053-.073-.07-.242c-.035-.266.173-.566.247-.61.146.522.394.7.404.707.01.007.02.008.03.003.01-.007.08-.048.17-.26.06-.144.04-.31.01-.41.1.076.29.234.32.44.03.26.02.31.01.343l-.01.02c0 .017 0 .03.01.04 0 .01.02.014.03.014.06 0 .24-.17.27-.36.02.023.06.073.09.142.02.06.06.19.01.31-.09.19-.26.33-.36.38h-1.39c-.17-.07-.35-.33-.39-.51-.03-.11-.03-.25-.02-.35.04.06.1.15.19.23.14.13.3.15.37.15h.03c.01-.01.02-.01.03-.03 0-.01 0-.02-.01-.03zm-1.645 1.637l.325-.64c.034-.07.097-.11.17-.11.07 0 .137.04.17.1l.585 1.03-.013.14-.03.34-.017.2-.685-1.21-.334.65c-.035.06-.1.1-.173.1-.07 0-.14-.04-.17-.11l-.74-1.46-.12.17c-.04.06-.13.09-.2.06s-.12-.1-.12-.18l.04-1c0-.01.01-.02.01-.04.02-.05.05-.09.1-.11.06-.03.14-.03.19.01l.82.59c.06.04.09.12.07.19-.03.09-.09.14-.18.14l-.23-.01.57 1.11zm-1.467 1.23c-.026-.04-.076-.15-.055-.22.01-.02.02-.04.05-.05.15-.07.42-.11.42-.11.02-.01.03-.02.03-.04s-.01-.04-.03-.04c-.14-.03-.53-.11-.62-.18-.11-.08-.21-.24-.24-.32l-.03-.11c.13.02.42.08.48.08.07 0 .15-.03.19-.04.01 0 .01-.01.02-.01.02-.01.02-.03.01-.05-.01-.02-.03-.02-.04-.02s-.09.01-.38-.16c-.14-.09-.25-.14-.34-.19-.12-.06-.19-.1-.21-.14l-.04-.09c.11.02.33.07.48.07h.27c.02 0 .03-.02.03-.03 0-.02-.01-.04-.03-.04 0 0-.37-.06-.62-.23l-.1-.07c-.21-.14-.34-.23-.4-.43-.03-.1-.12-.39-.09-.42 0 0 .02 0 .04.02.14.08.76.44 1.17.65l-.01.16c0 .13.07.25.2.29.12.04.24 0 .32-.09.29.39.78 1.28 1.07 1.82.11.2.2.36.26.46.26.45.62.7.69.74.04.01.08.1.07.27-.01.16 0 .76 0 .89-.04.01-.11.04-.17.03-.02-.01-.05-.01-.07-.01-.1 0-.16-.01-.18-.07-.03-.09.01-.38.03-.48.01-.01 0-.02 0-.03-.01-.02-.05-.09-.1-.09-.02 0-.04.01-.06.04l-.01.01c-.04.07-.08.13-.04.28l.01.03c.03.1.03.1-.02.15-.08.07-.21.09-.31.04-.03-.02-.06-.03-.06-.05-.01-.03.01-.08.04-.14.06-.12.04-.31.04-.32 0-.01 0-.02-.01-.03h-.03c-.01.01-.16.08-.21.17-.02.04-.02.09-.03.13 0 .02 0 .06-.01.06-.04 0-.19-.11-.2-.18-.01-.06.12-.5.25-.89 0-.02 0-.04-.02-.04-.01-.01-.03-.01-.04 0-.01.01-.16.16-.23.36-.03.09-.05.18-.05.25 0 .03-.01.07-.02.09-.03-.01-.08-.03-.2-.18-.13-.19-.18-.33-.16-.39.02-.05.1-.13.17-.19l.11-.11c.08-.09.08-.17.08-.18 0-.01 0-.02-.01-.02 0-.01-.01-.02-.02-.02-.01.01-.2.02-.35.11-.05.03-.11.07-.14.07-.01 0-.02-.01-.04-.04-.01-.03-.04-.07-.07-.1-.04-.05-.08-.11-.09-.17-.01-.04.01-.07.02-.07.1-.05.46-.16.46-.16.02-.01.03-.02.03-.04s-.01-.03-.03-.03c0 0-.12-.01-.27-.04-.13-.03-.36-.19-.392-.21zM3.443 6.59c.52.45 1.99 1.58 3.58 1.598h.116v-3.24h-1.6v-1.55h1.6V1.802h1.54v1.592h1.56v1.55H8.69V8.19l.12-.002c1.578-.028 3.03-1.145 3.55-1.592v4.385c-.52-.44-1.972-1.56-3.55-1.59h-.12v3.48h1.594v1.55H8.688v1.88h-1.55v-1.88h-1.56v-1.55H7.14V9.39l-.117.003c-1.59.018-3.06 1.147-3.58 1.59V6.6zM27.03.01H.63v27.8c0 2.367.947 4.7 1.98 6.91 1.616 3.465 5.063 7.858 8.928 10.69.255.186.512.365.768.54.088.06.175.113.262.17.168.11.336.22.503.326.11.067.21.128.32.19.15.093.3.18.45.267l.33.186.42.23c.11.06.22.11.33.17.14.07.27.13.4.2l.33.16.39.18.31.14.63.27c2.11.88 3.74 1.22 4.2 1.22h.01c.49-.01 2.33-.41 4.67-1.44.16-.07.33-.15.49-.22l.17-.08.46-.22.24-.12c.18-.09.36-.19.55-.28.18-.1.35-.19.53-.29l.3-.18.45-.27.29-.18c.17-.1.33-.21.49-.32.09-.05.17-.11.25-.16.25-.17.5-.34.74-.52 3.87-2.83 7.31-7.22 8.93-10.69 1.03-2.21 1.98-4.54 1.98-6.91V.01h-14.7zm24.7 16.955V.008h2.57V14.65h8.167v2.31H51.73m19.095-9.357c-.453-.453-1.07-.69-1.786-.69s-1.31.237-1.77.69c-.74.738-.84 2-.84 3.31s.09 2.57.83 3.31c.45.45 1.05.714 1.76.714s1.33-.263 1.78-.715c.74-.738.83-2 .83-3.31s-.1-2.57-.84-3.31zm1.834 8.072c-.79.81-1.98 1.428-3.62 1.428-1.65 0-2.81-.62-3.6-1.428-1.14-1.19-1.43-2.715-1.43-4.763 0-2.023.28-3.547 1.43-4.738.78-.81 1.95-1.428 3.59-1.428s2.83.618 3.62 1.428c1.14 1.19 1.42 2.715 1.42 4.738 0 2.048-.29 3.573-1.43 4.763zm11.47 1.285v-1.214c-.84.905-2 1.357-3.22 1.357-1.24 0-2.27-.404-2.98-1.094-.93-.91-1.22-2.05-1.22-3.41V4.89h2.42v7.358c0 1.882 1.07 2.69 2.43 2.69 1.35 0 2.5-.833 2.5-2.69v-7.36h2.43V16.96h-2.38M94.18 6.912c-2.19 0-2.475 1.88-2.475 3.786 0 1.906.285 3.787 2.476 3.787 2.19 0 2.46-1.88 2.46-3.787 0-1.905-.26-3.786-2.45-3.786zm-.285 15.073c-1.833 0-3-.43-4.262-1.595l1.548-1.548c.77.714 1.43 1.07 2.62 1.07 2.05 0 2.84-1.45 2.84-3.07v-1.548c-.88 1.048-1.88 1.38-3.12 1.38-1.21 0-2.21-.404-2.88-1.07-1.17-1.167-1.35-2.858-1.35-4.906 0-2.047.19-3.738 1.36-4.905.67-.667 1.69-1.047 2.91-1.047 1.29 0 2.27.332 3.17 1.428V4.888h2.36V16.89c0 2.953-1.95 5.095-5.17 5.095zm15.858-5.025V9.603c0-1.88-1.07-2.69-2.428-2.69-1.357 0-2.502.834-2.502 2.69v7.36h-2.428V.005h2.428v6.097c.812-.906 1.93-1.357 3.168-1.357 1.24 0 2.27.404 2.98 1.094.93.9 1.22 2.05 1.22 3.4v7.71h-2.43m10.6-10.05c-2.21 0-2.52 1.86-2.52 4 0 2.14.31 4.02 2.53 4.02 2.19 0 2.5-1.88 2.5-4.03 0-2.14-.31-4-2.5-4zm3.57 9.12c-.66.67-1.73 1.07-2.95 1.07-1.28 0-2.28-.33-3.19-1.43v1.28h-2.39V0h2.43v6.1c.88-1.05 1.88-1.36 3.17-1.36 1.22 0 2.27.408 2.93 1.07 1.17 1.19 1.36 3.12 1.36 5.1 0 2-.19 3.93-1.36 5.12zm10.35-8.42c-.45-.45-1.07-.69-1.78-.69s-1.31.24-1.76.69c-.74.74-.83 2-.83 3.31s.1 2.57.83 3.31c.46.45 1.05.71 1.77.71s1.34-.27 1.79-.72c.73-.73.83-2 .83-3.31s-.1-2.57-.84-3.31zm1.84 8.07c-.78.81-1.97 1.43-3.62 1.43-1.64 0-2.81-.62-3.59-1.43-1.14-1.19-1.43-2.72-1.43-4.77 0-2.02.29-3.54 1.43-4.73.79-.81 1.95-1.43 3.6-1.43s2.84.62 3.62 1.43c1.15 1.19 1.43 2.71 1.43 4.73 0 2.05-.28 3.57-1.43 4.76zm10.83-7.95c-.55-.55-.97-.81-1.81-.81-1.31 0-2.4 1.05-2.4 2.71v7.33h-2.43V4.89h2.38V6.2c.62-.857 1.86-1.452 3.22-1.452 1.17 0 2.05.31 2.88 1.142l-1.83 1.834m9.53-.12c-.45-.454-1.07-.69-1.78-.69s-1.31.236-1.76.69c-.74.737-.83 2-.83 3.31s.1 2.57.84 3.31c.45.45 1.05.713 1.76.713.72 0 1.33-.263 1.79-.715.74-.738.84-2 .84-3.31s-.09-2.57-.83-3.31zm1.84 8.07c-.79.81-1.98 1.43-3.62 1.43s-2.81-.62-3.59-1.43c-1.14-1.19-1.43-2.714-1.43-4.762 0-2.023.29-3.547 1.43-4.738.79-.81 1.96-1.428 3.6-1.428s2.84.618 3.62 1.428c1.14 1.19 1.43 2.715 1.43 4.738 0 2.048-.29 3.573-1.43 4.763zm11.47 1.286v-1.214c-.83.905-2 1.357-3.21 1.357-1.24 0-2.26-.404-2.97-1.094-.92-.91-1.21-2.05-1.21-3.41V4.89h2.43v7.358c0 1.882 1.08 2.69 2.43 2.69 1.36 0 2.5-.833 2.5-2.69v-7.36h2.43V16.96h-2.38m10.04-10.048c-2.19 0-2.47 1.88-2.47 3.786 0 1.906.29 3.787 2.48 3.787s2.45-1.88 2.45-3.787c0-1.905-.26-3.786-2.46-3.786zm-.28 15.073c-1.83 0-3-.43-4.26-1.595l1.55-1.548c.76.714 1.43 1.07 2.62 1.07 2.05 0 2.84-1.45 2.84-3.07v-1.548c-.88 1.048-1.88 1.38-3.12 1.38-1.21 0-2.21-.404-2.88-1.07-1.17-1.167-1.36-2.858-1.36-4.906 0-2.047.19-3.738 1.36-4.905.67-.667 1.69-1.047 2.91-1.047 1.29 0 2.26.332 3.17 1.428V4.888h2.36V16.89c0 2.953-1.95 5.095-5.16 5.095zm15.85-5.025V9.603c0-1.88-1.07-2.69-2.42-2.69-1.35 0-2.5.834-2.5 2.69v7.36h-2.43V.005h2.43v6.097c.81-.906 1.93-1.357 3.17-1.357s2.27.404 2.98 1.094c.93.9 1.22 2.05 1.22 3.4v7.71h-2.43M57.8 40.91c-3.452 0-6.07-2.355-6.07-5.856v-11.24h2.57v11.12c0 2.263 1.38 3.668 3.5 3.668s3.524-1.405 3.524-3.667v-11.12h2.572v11.24c0 3.5-2.643 5.856-6.096 5.856m16.81-.14v-7.35c0-1.88-1.072-2.69-2.428-2.69-1.357 0-2.5.84-2.5 2.69v7.36h-2.43V28.7h2.383v1.214c.833-.905 2-1.358 3.214-1.358 1.23 0 2.26.404 2.97 1.096.93.904 1.21 2.047 1.21 3.404v7.716H74.6m5.646 0h2.43V28.7h-2.43v12.07zm-.07-14.455h2.57v-2.57h-2.57v2.57zm10.5 14.455H88.7L84.274 28.7h2.576l2.85 8.5 2.834-8.5h2.57l-4.43 12.072m12.908-8.667c-.404-.906-1.238-1.525-2.38-1.525-1.168 0-2 .62-2.406 1.525-.24.523-.287.904-.31 1.642h5.43c-.048-.738-.097-1.12-.335-1.642zm-5.095 3.333c0 2.095 1.07 3.38 3.07 3.38 1.36 0 2.073-.38 2.93-1.238l1.55 1.454c-1.238 1.237-2.405 1.88-4.524 1.88-3.024 0-5.43-1.594-5.43-6.19 0-3.93 2.025-6.168 5.12-6.168 3.24 0 5.12 2.334 5.12 5.857v1.025H98.49zm17.167-3.906c-.548-.547-.976-.81-1.81-.81-1.31 0-2.405 1.05-2.405 2.715v7.335h-2.43V28.7h2.38v1.31c.62-.86 1.86-1.454 3.21-1.454 1.16 0 2.05.31 2.88 1.143l-1.84 1.83m7.19 9.38c-1.98 0-3.64-.34-5.07-1.74l1.59-1.6c.98 1 2.28 1.26 3.48 1.26 1.5 0 2.64-.53 2.64-1.67 0-.84-.45-1.31-1.62-1.43l-1.93-.17c-2.29-.22-3.57-1.22-3.57-3.33 0-2.38 2.02-3.69 4.54-3.69 1.83 0 3.35.38 4.47 1.35l-1.53 1.54c-.76-.65-1.83-.88-2.98-.88-1.48 0-2.19.62-2.19 1.55 0 .83.48 1.26 1.67 1.38l1.69.14c2.5.21 3.81 1.31 3.81 3.43 0 2.52-2.14 3.83-5.02 3.83m7.45-.15h2.43V28.7h-2.43v12.07zm-.07-14.46h2.57V23.7h-2.57v2.57zm9.42 14.46c-2.27 0-3.31-1.62-3.31-3.36v-6.86h-1.38V28.7h1.38v-3.453h2.43V28.7h2.33v1.856h-2.33v6.74c0 .88.43 1.404 1.33 1.404h1v2.072h-1.45m7.81 2.405c-.24.667-.52 1.143-.88 1.5-.67.666-1.55.88-2.48.88h-.98v-2.19h.62c1.03 0 1.38-.31 1.74-1.285l.67-1.882-4.21-11.5h2.57l2.88 8.5 2.81-8.5h2.59l-5.34 14.477" fill="#FFFFFE" fill-rule="evenodd"/>
</svg>
